<?xml version="1.0" encoding="UTF-8" standalone="no"?>
<!-- Created with Inkscape (http://www.inkscape.org/) -->

<svg
   width="72.452011mm"
   height="103.59226mm"
   viewBox="0 0 72.452011 103.59226"
   version="1.1"
   id="svg5"
   xml:space="preserve"
   xmlns:inkscape="http://www.inkscape.org/namespaces/inkscape"
   xmlns:sodipodi="http://sodipodi.sourceforge.net/DTD/sodipodi-0.dtd"
   xmlns="http://www.w3.org/2000/svg"
   xmlns:svg="http://www.w3.org/2000/svg"><sodipodi:namedview
     id="namedview7"
     pagecolor="#ffffff"
     bordercolor="#666666"
     borderopacity="1.0"
     inkscape:showpageshadow="2"
     inkscape:pageopacity="0.0"
     inkscape:pagecheckerboard="0"
     inkscape:deskcolor="#d1d1d1"
     inkscape:document-units="mm"
     showgrid="false" /><defs
     id="defs2" /><g
     inkscape:label="Layer 1"
     inkscape:groupmode="layer"
     id="layer1"
     transform="translate(-53.08727,-36.729419)"><g
       id="g183"
       transform="translate(-7.8698164,4.4481566)"><path
         style="fill:#fefefe;stroke-width:0.264583"
         d="m 80.306647,135.53243 c 0.470543,-0.19661 1.240846,-0.79632 1.711786,-1.33269 0.47094,-0.53637 1.161272,-1.57714 1.53407,-2.31282 0.566631,-1.1182 0.772702,-1.31439 1.256278,-1.19605 0.318156,0.0779 1.650027,0.29473 2.959714,0.48194 1.342342,0.19188 4.632216,0.33201 7.540625,0.32119 3.426155,-0.0128 6.08535,-0.16632 7.91578,-0.45716 1.51602,-0.24088 2.76855,-0.40835 2.7834,-0.37215 0.0148,0.0362 0.28881,0.62692 0.60879,1.31271 0.31999,0.68579 1.01008,1.72094 1.53353,2.30035 0.52346,0.5794 1.34345,1.18273 1.82222,1.34074 0.59759,0.19722 1.0908,0.20351 1.57329,0.0201 0.38656,-0.14697 0.83204,-0.55082 0.98998,-0.89744 0.28322,-0.62161 0.3051,-0.62496 1.60038,-0.24526 0.72228,0.21173 1.60759,0.31108 1.96735,0.22079 0.35977,-0.0903 0.85522,-0.39904 1.101,-0.68609 0.28546,-0.33339 0.78404,-0.52402 1.38027,-0.52773 0.51336,-0.003 1.42789,-0.23035 2.03229,-0.50478 0.62255,-0.28268 1.17824,-0.7489 1.2819,-1.07553 0.10065,-0.3171 0.1111,-0.95979 0.0232,-1.42819 -0.092,-0.49053 -0.57947,-1.25859 -1.1496,-1.81142 -0.54442,-0.52789 -1.49622,-1.24536 -2.11512,-1.59439 -1.12527,-0.63458 -1.12527,-0.63458 0.33018,-1.63699 0.8005,-0.55132 2.16964,-1.76588 3.04253,-2.699 0.8729,-0.93313 1.83735,-2.18715 2.14322,-2.7867 0.30587,-0.59956 0.73445,-1.57793 0.9524,-2.17417 0.21794,-0.59623 0.56504,-2.81047 0.77131,-4.92052 0.20628,-2.11005 0.49956,-6.33677 0.65173,-9.39271 0.15218,-3.05593 0.27847,-9.247185 0.28066,-13.75833 0.002,-4.511146 -0.1269,-10.107083 -0.28686,-12.435416 -0.15995,-2.328334 -0.3666,-5.414304 -0.4592,-6.857709 -0.16104,-2.510052 -0.14634,-2.615814 0.33734,-2.427756 0.27814,0.108143 1.76708,0.264174 3.30874,0.346734 2.72721,0.146053 2.81488,0.133194 3.24114,-0.475387 0.24097,-0.344025 0.43812,-0.768877 0.43812,-0.944116 0,-0.175238 -1.53445,-2.465032 -3.40989,-5.088426 -1.87543,-2.623397 -4.72645,-6.471886 -6.33559,-8.552201 -1.60914,-2.080313 -4.25328,-5.3302 -5.87587,-7.221971 -1.62258,-1.891771 -5.1046,-5.730726 -7.73782,-8.531011 -2.63321,-2.800285 -5.00519,-5.16047 -5.27107,-5.244855 -0.26587,-0.08438 -3.34246,0.632136 -6.836865,1.592269 -3.494402,0.960133 -8.387225,2.407042 -10.872938,3.215354 -2.485713,0.808312 -6.262256,2.12278 -8.392318,2.921041 -2.130063,0.798261 -6.823424,2.706093 -10.429695,4.239628 -3.606268,1.533534 -6.738122,2.969515 -6.959676,3.191067 -0.221552,0.221554 -0.366594,0.711433 -0.322313,1.08862 0.04988,0.424881 0.410022,0.907092 0.946613,1.267468 0.476356,0.319921 2.202762,1.142717 3.836458,1.828437 1.633696,0.685721 3.008418,1.27947 3.05494,1.319446 0.04652,0.03997 -0.454732,1.006959 -1.113896,2.148858 -0.659164,1.141897 -1.55847,3.159442 -1.998451,4.483433 -0.439983,1.323991 -0.915117,3.288522 -1.055848,4.365625 -0.140732,1.077103 -0.386194,3.684775 -0.545471,5.794827 -0.159276,2.110052 -0.400177,5.681927 -0.535331,7.9375 -0.135155,2.255572 -0.238387,7.732447 -0.229407,12.170832 0.009,4.438386 0.118062,10.391509 0.242403,13.229169 0.124338,2.83765 0.400463,7.06437 0.613609,9.39271 0.26585,2.90406 0.56661,4.70894 0.957831,5.74801 0.313661,0.83307 1.078346,2.20229 1.699299,3.04271 0.620954,0.84041 1.600441,1.95151 2.17664,2.46911 0.576196,0.51759 1.619549,1.33456 2.318557,1.81549 1.270929,0.87443 1.270929,0.87443 -0.03093,1.61795 -0.716024,0.40894 -1.677824,1.17172 -2.137339,1.69508 -0.459512,0.52336 -0.909637,1.24703 -1.000276,1.60816 -0.09064,0.36114 -0.09063,0.9521 1.1e-5,1.31325 0.09064,0.36116 0.518218,0.83941 0.950164,1.06278 0.431948,0.22336 1.352957,0.48046 2.046689,0.57132 0.69373,0.0909 1.46444,0.3759 1.712685,0.63343 0.248245,0.25754 0.78468,0.54145 1.19208,0.63093 0.407398,0.0895 1.293479,-0.004 1.969066,-0.20698 1.202301,-0.36184 1.23448,-0.35621 1.517751,0.2655 0.159173,0.34935 0.558263,0.74321 0.886867,0.87525 0.328605,0.13205 0.690584,0.24763 0.8044,0.25686 0.113813,0.009 0.591923,-0.14409 1.062466,-0.34069 z"
         id="path201"
         sodipodi:nodetypes="ssscscscsssssssscsscsssssssscssssssssssssssssssssssssssssssssssssscsscsscss" /><path
         style="fill:#f6f6f6;stroke-width:0.264583"
         d="m 88.738156,127.6567 c -1.067417,-0.14251 -3.325961,-0.60895 -5.018987,-1.03653 -2.040043,-0.51522 -4.08709,-1.27177 -6.069507,-2.24318 -2.377916,-1.16521 -3.397649,-1.85179 -4.973124,-3.34833 -1.465874,-1.39244 -2.225042,-2.37463 -2.915938,-3.77256 -0.796139,-1.61088 -0.992471,-2.39177 -1.329431,-5.28764 -0.21744,-1.8687 -0.340347,-3.45263 -0.273129,-3.51985 0.06722,-0.0672 2.840196,0.0671 6.162172,0.29859 3.321973,0.23144 7.081747,0.49274 8.355054,0.58067 2.138548,0.14767 2.315504,0.20312 2.320332,0.72709 0.0029,0.31197 0.179883,2.28414 0.393351,4.38261 0.213466,2.09846 0.457303,4.03335 0.541856,4.29975 0.08456,0.26641 0.362254,0.59598 0.617109,0.73237 0.254855,0.13639 1.764839,0.38987 3.35552,0.56328 1.817708,0.19816 4.464835,0.25294 7.125477,0.14746 2.328333,-0.0923 4.751009,-0.27252 5.383719,-0.40048 0.63271,-0.12796 1.31817,-0.40044 1.52324,-0.60551 0.25192,-0.25191 0.51825,-1.88298 0.82105,-5.02831 0.44819,-4.65545 0.44819,-4.65545 4.56217,-4.84634 2.26269,-0.10499 6.04875,-0.32738 8.41347,-0.49419 3.36688,-0.23751 4.29947,-0.23346 4.29947,0.0187 0,0.17708 -0.131,1.54702 -0.29111,3.04431 -0.16011,1.4973 -0.50968,3.35142 -0.77683,4.12026 -0.26714,0.76884 -1.0275,2.15713 -1.68968,3.0851 -0.69175,0.9694 -1.96528,2.25916 -2.99348,3.03162 -0.98424,0.73944 -2.62296,1.75526 -3.6416,2.25738 -1.01865,0.50212 -2.74505,1.2097 -3.83646,1.57239 -1.09141,0.36269 -3.175,0.91617 -4.63021,1.22996 -2.10135,0.45311 -3.76203,0.58904 -8.06979,0.66052 -2.983177,0.0495 -6.297298,-0.0266 -7.364714,-0.1691 z m 26.943054,-25.02013 c 0.50887,-0.4101 1.74593,-1.46001 2.74903,-2.33314 1.00309,-0.873123 2.17062,-1.868941 2.59449,-2.212928 0.42387,-0.343987 0.80829,-0.582112 0.85426,-0.529167 0.046,0.05295 0.16495,1.243836 0.2644,2.646425 0.18082,2.55016 0.18082,2.55016 -2.54496,2.72284 -1.49917,0.095 -3.20202,0.23544 -3.7841,0.31214 -1.05834,0.13947 -1.05834,0.13947 -0.13312,-0.60617 z m -43.655423,0.27131 c -0.509322,-0.049 -1.643932,-0.15562 -2.521354,-0.23705 -1.595311,-0.14807 -1.595311,-0.14807 -1.509935,-2.05148 0.04696,-1.04688 0.143793,-2.178307 0.215194,-2.514283 0.127275,-0.5989 0.141964,-0.60149 0.749913,-0.132291 0.341054,0.263215 1.438728,1.192948 2.439276,2.066074 1.000548,0.87312 2.235525,1.9136 2.744396,2.31217 0.925219,0.72467 0.925219,0.72467 -0.133115,0.68526 -0.582083,-0.0217 -1.475052,-0.0795 -1.984375,-0.1284 z m 10.439969,-9.285177 c -1.122008,-1.70987 -3.047283,-4.452733 -4.278387,-6.095253 -1.231106,-1.64252 -3.418821,-4.380958 -4.861591,-6.085417 -2.335482,-2.759091 -2.695697,-3.325243 -3.283971,-5.161452 -0.363413,-1.13434 -0.794967,-2.920277 -0.959009,-3.968749 -0.165597,-1.058405 -0.229589,-2.965471 -0.143872,-4.287565 0.08615,-1.328775 0.459393,-3.433725 0.844468,-4.7625 0.379542,-1.309687 1.128646,-3.202448 1.664673,-4.206134 0.536027,-1.003686 1.839547,-2.748568 2.896709,-3.877516 1.057161,-1.128945 2.492695,-2.41877 3.19007,-2.866276 1.26796,-0.813647 1.26796,-0.813647 6.941428,0.506275 3.120409,0.725956 8.173783,1.987626 11.229721,2.803715 3.055937,0.816089 5.988325,1.599832 6.516425,1.741654 0.96018,0.257858 0.96018,0.257858 -0.16261,1.292799 -0.66202,0.610233 -1.42992,1.713281 -1.87123,2.687921 -0.633208,1.398444 -0.74846,1.999284 -0.74846,3.901937 0,1.902653 0.115252,2.503493 0.74846,3.901937 0.45333,1.001181 1.21011,2.078514 1.91923,2.732154 0.64392,0.593547 1.61006,1.267206 2.14697,1.497015 0.53692,0.229809 1.69059,0.41956 2.56371,0.421669 1.1049,0.0027 1.91829,-0.166703 2.67562,-0.557133 0.59847,-0.308528 1.63903,-1.173713 2.31237,-1.922629 0.87718,-0.975633 1.37506,-1.849887 1.75616,-3.083753 0.29254,-0.947145 0.53048,-2.275089 0.52875,-2.950985 -0.002,-0.675894 -0.16697,-1.824212 -0.36721,-2.551817 -0.20023,-0.727604 -0.44697,-1.524208 -0.5483,-1.770234 -0.14798,-0.359286 0.54419,-0.205856 3.51709,0.779627 3.70134,1.226947 3.70134,1.226947 4.05718,2.82857 0.20462,0.920959 0.34856,3.063385 0.33871,5.041204 -0.0118,2.370534 -0.15695,3.949591 -0.46697,5.080494 -0.2474,0.902502 -0.66953,2.152658 -0.93806,2.778125 -0.26853,0.625467 -1.54668,2.381954 -2.84033,3.903305 -1.29365,1.521352 -3.66447,4.523576 -5.26849,6.671612 -1.60402,2.148035 -3.56856,4.98046 -4.36563,6.294278 -1.19789,1.974501 -1.54099,2.364055 -1.97839,2.246299 -0.29104,-0.07836 -1.3626,-0.317553 -2.38125,-0.531553 -1.01864,-0.214 -3.749297,-0.476589 -6.068122,-0.583533 -4.216042,-0.194445 -4.216042,-0.194445 -5.220255,-3.898612 -0.552318,-2.037291 -1.006583,-4.053247 -1.009478,-4.479901 -0.0029,-0.431167 0.435446,-1.516967 0.986922,-2.444493 0.723562,-1.216959 1.099638,-1.620144 1.389063,-1.489196 0.218281,0.09876 1.081569,0.227094 1.918419,0.285191 1.174782,0.08156 1.791441,-0.02503 2.705804,-0.467661 0.651343,-0.31531 1.490387,-0.937102 1.86454,-1.381758 0.374155,-0.444656 0.927977,-1.293995 1.230717,-1.887415 0.31331,-0.614127 0.56432,-1.642827 0.58267,-2.38782 0.0303,-1.232725 -0.0139,-1.323625 -0.76153,-1.562568 -0.43656,-0.139536 -2.639214,-0.26951 -4.894787,-0.288832 -2.255573,-0.01932 -4.673523,0.0625 -5.373224,0.181832 -0.73428,0.125224 -1.337255,0.386535 -1.426083,0.618019 -0.08465,0.220583 -0.0099,1.044281 0.165978,1.83044 0.175935,0.786162 0.73578,2.033992 1.2441,2.772958 0.924219,1.343578 0.924219,1.343578 -0.251285,3.244265 -0.646525,1.045379 -1.245653,2.138815 -1.331394,2.429856 -0.08574,0.291042 0.35806,2.434167 0.986224,4.7625 1.142116,4.233333 1.142116,4.233333 -1.132454,4.544436 -1.251013,0.171108 -2.609741,0.438999 -3.019398,0.595312 -0.409655,0.156316 -0.786583,0.28421 -0.837613,0.28421 -0.05103,0 -1.01079,-1.398984 -2.132798,-3.108854 z m 2.807321,-20.066356 c 1.123125,-0.32906 1.761326,-0.752102 2.921238,-1.93639 1.045345,-1.067319 1.630463,-1.940227 1.979012,-2.952393 0.311701,-0.905158 0.494861,-2.171515 0.494861,-3.421422 0,-1.223089 -0.182732,-2.514253 -0.476308,-3.365563 -0.274958,-0.797322 -0.987105,-1.949321 -1.684647,-2.725153 -0.664586,-0.73918 -1.638459,-1.561894 -2.164162,-1.82825 -0.525706,-0.266358 -1.457455,-0.567811 -2.070555,-0.669895 -0.748252,-0.124587 -1.605521,-0.04293 -2.607598,0.248382 -1.050327,0.30534 -1.873467,0.789993 -2.776773,1.63493 -0.706147,0.660516 -1.5303,1.709933 -1.831454,2.332034 -0.301154,0.622102 -0.676061,1.860638 -0.833125,2.752305 -0.203258,1.153927 -0.204131,2.083538 -0.003,3.225228 0.155397,0.882211 0.542417,2.124371 0.860044,2.760355 0.317624,0.635985 1.086069,1.655458 1.707655,2.265498 0.693851,0.68096 1.675079,1.297355 2.541664,1.596633 0.77633,0.268108 1.657789,0.491358 1.9588,0.496107 0.301009,0.0048 1.193977,-0.180832 1.984375,-0.412406 z M 84.293733,65.83557 c -0.310391,-0.251425 -0.697344,-0.717201 -0.859896,-1.035055 -0.162552,-0.317855 -0.29555,-1.07338 -0.29555,-1.678948 0,-0.697296 0.205441,-1.389544 0.560266,-1.88785 0.308147,-0.432749 0.865819,-0.902991 1.239274,-1.044979 0.463716,-0.176305 0.911166,-0.161994 1.41121,0.04513 0.402712,0.166809 0.907942,0.571497 1.12273,0.899308 0.214792,0.327811 0.46662,1.001617 0.559618,1.497351 0.093,0.495731 0.0342,1.257279 -0.13067,1.692328 -0.16487,0.435046 -0.550709,1.058886 -0.857424,1.386308 -0.348084,0.371583 -0.863492,0.5931 -1.371436,0.589428 -0.447577,-0.0032 -1.067732,-0.211595 -1.378122,-0.463021 z m 23.283337,0 c -0.3104,-0.251425 -0.69735,-0.717201 -0.8599,-1.035055 -0.16255,-0.317855 -0.29511,-1.03223 -0.29456,-1.5875 5.3e-4,-0.55527 0.23872,-1.399503 0.52929,-1.876073 0.29056,-0.476567 0.84162,-0.985615 1.22458,-1.131215 0.38295,-0.145601 0.94845,-0.188082 1.25665,-0.0944 0.3082,0.09368 0.76424,0.349234 1.01342,0.567899 0.24919,0.218665 0.5884,0.807657 0.75382,1.308867 0.16541,0.501211 0.22469,1.316747 0.13172,1.812301 -0.093,0.495554 -0.47253,1.2617 -0.84348,1.702546 -0.49237,0.585152 -0.90024,0.799952 -1.51082,0.795655 -0.46001,-0.0032 -1.09033,-0.211595 -1.40072,-0.463021 z"
         id="path199" /><path
         style="fill:#fab914;stroke-width:0.264583"
         d="m 77.798009,134.83804 c -0.61613,-0.78727 -0.61613,-0.78727 -1.849721,-0.41602 -0.678474,0.20419 -1.511173,0.30355 -1.85044,0.22079 -0.33927,-0.0828 -0.835115,-0.33969 -1.101884,-0.57095 -0.266766,-0.23127 -1.219266,-0.5685 -2.116666,-0.7494 -1.161143,-0.23406 -1.803297,-0.52593 -2.226948,-1.01216 -0.327422,-0.37579 -0.595312,-0.87451 -0.595312,-1.10827 0,-0.23376 0.290128,-0.92009 0.644728,-1.52517 0.354603,-0.60509 1.098743,-1.41116 1.653646,-1.79128 0.554905,-0.38013 1.308277,-0.82458 1.674159,-0.98768 0.576421,-0.25694 1.000345,-0.13705 3.175,0.89793 1.380368,0.65696 3.909756,1.57834 5.620866,2.04751 2.850359,0.78154 3.097456,0.89882 2.948234,1.39927 -0.08958,0.30043 -0.524436,1.11913 -0.966349,1.81933 -0.441912,0.7002 -1.230709,1.5634 -1.752883,1.91823 -0.522173,0.35482 -1.329856,0.64514 -1.794854,0.64514 -0.623403,0 -1.00726,-0.20677 -1.461576,-0.78727 z m 31.502951,0.3225 c -0.3809,-0.2537 -0.98971,-0.81846 -1.35291,-1.25503 -0.3632,-0.43656 -0.92307,-1.3113 -1.24415,-1.94387 -0.32108,-0.63256 -0.54571,-1.18805 -0.49918,-1.23441 0.0465,-0.0464 1.07936,-0.3382 2.29517,-0.64854 1.21581,-0.31033 2.99031,-0.85774 3.94335,-1.21646 0.95303,-0.35872 2.48377,-1.02192 3.40163,-1.47379 1.66885,-0.82157 1.66885,-0.82157 3.06811,-0.0356 0.76959,0.43228 1.78622,1.28906 2.25916,1.90395 0.47294,0.61489 0.85989,1.41554 0.85989,1.77923 0,0.37007 -0.32341,0.98465 -0.73446,1.39571 -0.50144,0.50143 -1.13873,0.79509 -2.00862,0.92553 -0.70079,0.10509 -1.33859,0.12665 -1.41733,0.0479 -0.0787,-0.0787 -0.3636,0.13707 -0.63303,0.47958 -0.26942,0.34252 -0.77496,0.69431 -1.12343,0.78177 -0.34847,0.0875 -1.19775,-0.0108 -1.88729,-0.21829 -1.2537,-0.3773 -1.2537,-0.3773 -1.90766,0.39989 -0.47057,0.55924 -0.88851,0.7767 -1.49034,0.77544 -0.46001,-0.001 -1.14802,-0.20932 -1.52891,-0.46302 z M 93.670238,83.12596 c -0.683102,-0.180408 -1.453155,-0.49694 -1.711227,-0.703397 -0.258072,-0.20646 -0.74404,-0.673036 -1.079926,-1.036838 -0.335889,-0.363803 -0.847982,-1.107562 -1.137989,-1.6528 -0.290007,-0.545237 -0.599133,-1.51553 -0.686946,-2.156208 -0.134591,-0.981935 -0.07833,-1.208397 0.358273,-1.442059 0.284863,-0.152452 1.670613,-0.395115 3.079445,-0.539249 1.63675,-0.167453 3.426645,-0.172556 4.957868,-0.01413 1.317998,0.136358 2.685224,0.320426 3.038284,0.409038 0.53606,0.134543 0.64193,0.323958 0.64193,1.148506 0,0.569917 -0.33898,1.665763 -0.80176,2.591858 -0.444927,0.890381 -1.210661,1.91635 -1.720513,2.305232 -0.505312,0.385421 -1.245846,0.803677 -1.645631,0.929458 -0.399788,0.125783 -1.024541,0.287178 -1.388343,0.358656 -0.363802,0.07148 -1.220361,-0.01765 -1.903465,-0.19806 z"
         id="path197" /><path
         style="fill:#cb7d30;stroke-width:0.264583"
         d="m 132.21483,67.886054 c -0.0919,-0.148778 -0.84311,-0.611222 -1.66926,-1.027658 -0.82614,-0.416435 -2.81176,-1.294537 -4.41249,-1.951341 -1.60073,-0.656802 -5.05354,-1.910686 -7.67292,-2.786409 -2.61937,-0.875721 -7.44141,-2.383716 -10.71562,-3.351099 -3.27422,-0.967383 -8.572504,-2.450978 -11.773962,-3.296877 -3.201458,-0.845902 -7.929605,-2.032577 -10.50699,-2.63706 -2.577385,-0.60448 -6.685042,-1.501711 -9.128125,-1.993847 -2.443083,-0.492136 -6.267018,-1.154276 -8.497638,-1.471425 -2.230617,-0.317148 -4.643133,-0.536006 -5.361141,-0.486351 -1.087437,0.0752 -1.331552,0.008 -1.461627,-0.402244 -0.08589,-0.270888 0.01193,-0.660609 0.217366,-0.866044 0.205436,-0.205436 1.854782,-1.037789 3.665215,-1.849668 1.81043,-0.811882 5.755973,-2.476715 8.767873,-3.699631 3.0119,-1.222917 8.310181,-3.16901 11.773958,-4.324652 3.463776,-1.155642 8.857619,-2.805073 11.986317,-3.665402 3.128694,-0.860329 6.044764,-1.64998 6.480134,-1.754779 0.75171,-0.180943 0.98305,0.0066 4.59104,3.722632 2.08968,2.152248 5.3742,5.703853 7.29891,7.892456 1.92471,2.188603 4.5554,5.288967 5.84598,6.889696 1.29058,1.600729 3.48907,4.458229 4.88555,6.35 1.39647,1.89177 3.52917,4.85182 4.73932,6.577888 2.04226,2.912898 2.176,3.183699 1.86205,3.770312 -0.18603,0.347604 -0.43015,0.632008 -0.5425,0.632008 -0.11234,0 -0.27949,-0.121727 -0.37144,-0.270505 z"
         id="path195" /><path
         style="fill:#a8682b;stroke-width:0.264583"
         d="m 127.53326,68.176423 c -0.68511,-0.09571 -1.29375,-0.228626 -1.35254,-0.295375 -0.0588,-0.06675 -0.17297,-0.79362 -0.25375,-1.615263 -0.14687,-1.493901 -0.14687,-1.493901 1.47906,-0.833226 0.89426,0.363371 2.29049,0.996143 3.10273,1.406163 0.81225,0.410019 1.63309,0.933799 1.82411,1.163955 0.3117,0.375581 0.1474,0.414843 -1.60334,0.383114 -1.07284,-0.01945 -2.51116,-0.11366 -3.19627,-0.209368 z M 65.674124,51.528621 c -1.674408,-0.696867 -3.339231,-1.699944 -3.737249,-1.960736 -0.398015,-0.260789 -0.687068,-0.505791 -0.606971,-0.635392 0.0801,-0.129603 0.761833,-0.08834 1.517229,-0.08568 0.755396,0.0027 2.623603,0.180454 4.151571,0.395084 1.527969,0.214627 3.099861,0.458782 3.493093,0.542565 0.714965,0.152331 0.714965,0.152331 -0.396875,1.569702 -0.611513,0.779555 -1.171374,1.422796 -1.244134,1.429427 -0.07276,0.0066 -1.50226,-0.55811 -3.176664,-1.25498 z"
         id="path193"
         sodipodi:nodetypes="ssssssssssscssscss" /><path
         style="fill:#a26426;stroke-width:0.264583"
         d="m 80.360162,108.98761 c -0.727604,-0.0462 -4.656666,-0.33429 -8.73125,-0.64022 -4.074583,-0.30594 -7.557161,-0.67799 -7.739062,-0.82677 -0.216916,-0.17743 -0.330729,-1.03616 -0.330729,-2.49539 0,-1.78321 0.08295,-2.25669 0.417846,-2.38521 0.229814,-0.0882 2.909887,0.0406 5.955712,0.28628 5.53787,0.44662 5.53787,0.44662 7.455609,1.8223 1.054759,0.75661 2.750233,1.8077 3.767725,2.33574 1.017489,0.52804 2.296467,1.10282 2.84217,1.27729 0.545703,0.17447 0.992187,0.42704 0.992187,0.56128 0,0.13423 -0.74414,0.2226 -1.653646,0.19637 -0.909505,-0.0262 -2.248958,-0.0855 -2.976562,-0.13167 z m 24.738538,-0.0233 c 0,-0.15702 0.44649,-0.43014 0.99219,-0.60695 0.5457,-0.1768 1.66874,-0.65993 2.49565,-1.07362 0.8269,-0.4137 2.49377,-1.42842 3.70416,-2.25494 2.20071,-1.50277 2.20071,-1.50277 6.69863,-1.8354 2.47385,-0.18294 5.03369,-0.35353 5.68854,-0.37907 0.65484,-0.0256 1.33945,-0.0354 1.52135,-0.0219 0.23833,0.0177 0.33073,0.6914 0.33073,2.41146 0,2.22618 -0.0401,2.40346 -0.59531,2.63249 -0.32742,0.13506 -3.27422,0.43162 -6.54844,0.65903 -3.27422,0.22742 -7.82836,0.49019 -10.12031,0.58394 -2.91048,0.11906 -4.16719,0.0844 -4.16719,-0.11502 z"
         id="path191" /><path
         style="fill:#bd003e;stroke-width:0.264583"
         d="m 88.566047,119.71119 c -1.016556,-0.13022 -1.997633,-0.38611 -2.180174,-0.56866 -0.194316,-0.19431 -0.495369,-1.97419 -0.726268,-4.29383 -0.216908,-2.17906 -0.441595,-4.46795 -0.499306,-5.08641 -0.104026,-1.11483 -0.09751,-1.12448 0.759301,-1.12448 0.475327,0 1.119166,-0.20836 1.430755,-0.46302 0.31159,-0.25467 0.636628,-0.90097 0.722308,-1.43623 0.102465,-0.64011 -0.04411,-1.6313 -0.428255,-2.89601 -0.32122,-1.05755 -1.121711,-2.99339 -1.778873,-4.301877 -1.086675,-2.163702 -1.154821,-2.40832 -0.752795,-2.702288 0.243123,-0.177773 1.188003,-0.45313 2.099738,-0.611902 0.911733,-0.158771 2.094429,-0.288676 2.62821,-0.288676 0.698399,0 0.970515,-0.11449 0.970515,-0.408337 0,-0.224586 -0.494437,-2.302554 -1.098751,-4.617706 -1.098751,-4.209367 -1.098751,-4.209367 0.197842,-6.338538 0.713126,-1.171043 1.415923,-2.127345 1.561772,-2.125117 0.145849,0.0021 0.41076,0.09655 0.588693,0.209595 0.235275,0.149479 0.03686,0.671583 -0.727454,1.914178 -0.578035,0.939747 -1.051038,1.996427 -1.05112,2.348177 -8.2e-5,0.351747 0.365426,2.018622 0.812239,3.704166 0.44681,1.685542 0.922798,3.493085 1.057746,4.016759 0.245358,0.952135 0.245358,0.952135 4.810008,1.122566 2.510557,0.09374 5.159962,0.290407 5.887562,0.437041 0.72761,0.146635 1.62179,0.388242 1.98709,0.536901 0.66416,0.270293 0.66416,0.270293 -0.72133,3.10874 -0.76202,1.561148 -1.57931,3.604108 -1.81619,4.539918 -0.34652,1.3689 -0.37178,1.89815 -0.12925,2.70767 0.16581,0.5534 0.52756,1.12719 0.80391,1.27509 0.27634,0.14789 0.86563,0.2689 1.30953,0.2689 0.80709,0 0.80709,0 0.65375,1.65364 -0.0843,0.90951 -0.31478,3.19136 -0.51211,5.07078 -0.21039,2.00384 -0.50094,3.55736 -0.7025,3.75616 -0.18905,0.18647 -1.35264,0.46446 -2.58575,0.61776 -1.233106,0.15331 -4.150137,0.26368 -6.482289,0.24527 -2.332148,-0.0184 -5.071998,-0.14001 -6.088554,-0.27023 z"
         id="path189" /><path
         style="fill:#161212;stroke-width:0.264583"
         d="m 81.45223,73.340148 c -0.563531,-0.209561 -1.4565,-0.728985 -1.984375,-1.154277 -0.527878,-0.425291 -1.278843,-1.23798 -1.668812,-1.805971 -0.389969,-0.567994 -0.895985,-1.695371 -1.124479,-2.505281 -0.228494,-0.809914 -0.415443,-2.017763 -0.415443,-2.684111 0,-0.666348 0.235254,-1.973204 0.522784,-2.904125 0.314418,-1.017963 0.903277,-2.1371 1.477423,-2.807858 0.52505,-0.613402 1.510186,-1.44186 2.189194,-1.841019 1.011849,-0.59482 1.544796,-0.723974 2.954348,-0.715952 1.231297,0.007 2.025531,0.170659 2.796172,0.576152 0.592011,0.311502 1.523077,1.060802 2.069034,1.665113 0.54596,0.60431 1.244592,1.65473 1.552517,2.334265 0.444105,0.980059 0.559866,1.755224 0.559866,3.749058 0,1.993834 -0.115761,2.768999 -0.559866,3.749058 -0.307925,0.679535 -1.006557,1.729955 -1.552517,2.334266 -0.545957,0.60431 -1.46245,1.338421 -2.036649,1.631354 -0.574198,0.292934 -1.653884,0.583848 -2.399297,0.646478 -0.807482,0.06784 -1.769451,-0.04014 -2.3799,-0.26715 z m 5.404331,-7.218386 c 0.416467,-0.246015 0.908203,-0.811562 1.092742,-1.256771 0.184542,-0.445211 0.324565,-1.231098 0.311164,-1.746414 -0.01342,-0.515318 -0.22011,-1.31546 -0.459346,-1.778095 -0.239239,-0.462634 -0.696585,-0.981162 -1.016328,-1.152281 -0.319744,-0.171122 -0.925791,-0.301337 -1.346772,-0.289367 -0.420983,0.01196 -1.003768,0.237463 -1.295082,0.501097 -0.291314,0.263636 -0.696066,0.801126 -0.899448,1.194427 -0.203383,0.393298 -0.369602,1.107956 -0.369377,1.588124 2.27e-4,0.480169 0.208587,1.288098 0.463021,1.795396 0.254436,0.507299 0.760266,1.071089 1.124069,1.252871 0.363802,0.181779 0.881213,0.332264 1.149802,0.33441 0.268589,0.0021 0.829088,-0.197385 1.245555,-0.443397 z m 17.798759,7.173473 c -0.60766,-0.223949 -1.63009,-0.869524 -2.27206,-1.434608 -0.7385,-0.650055 -1.4473,-1.640469 -1.92976,-2.696477 -0.649626,-1.421892 -0.762547,-2.002083 -0.762547,-3.918008 0,-1.912189 0.113361,-2.49705 0.757037,-3.905726 0.42378,-0.927444 1.20673,-2.063044 1.77859,-2.579687 0.56186,-0.507606 1.17005,-0.923843 1.35153,-0.924973 0.18148,-0.0011 2.2827,0.564417 4.66936,1.256771 4.3394,1.258824 4.3394,1.258824 4.8946,2.449449 0.44136,0.946501 0.55519,1.705996 0.55519,3.704166 0,2.0091 -0.11345,2.758988 -0.5653,3.736551 -0.31092,0.672659 -1.01708,1.723078 -1.56925,2.334266 -0.55218,0.61119 -1.47375,1.350928 -2.04795,1.643861 -0.5742,0.292934 -1.65388,0.579631 -2.3993,0.637104 -0.81729,0.06301 -1.79388,-0.05715 -2.46014,-0.302689 z m 5.48457,-7.173473 c 0.41647,-0.246015 0.91001,-0.811562 1.09676,-1.256771 0.18676,-0.445211 0.32956,-1.300612 0.31736,-1.900893 -0.0137,-0.674942 -0.24668,-1.406684 -0.61048,-1.917597 -0.32356,-0.454398 -0.90781,-0.910151 -1.29833,-1.012785 -0.39052,-0.102632 -0.94816,-0.151382 -1.23921,-0.108331 -0.29104,0.04305 -0.75396,0.275568 -1.0287,0.516704 -0.27474,0.241136 -0.6617,0.821558 -0.8599,1.289826 -0.19819,0.46827 -0.36035,1.184502 -0.36035,1.591627 0,0.407128 0.22104,1.155091 0.49121,1.662144 0.27017,0.507053 0.77619,1.068988 1.12448,1.248744 0.3483,0.179755 0.85302,0.328583 1.12161,0.330729 0.26859,0.0021 0.82909,-0.197385 1.24555,-0.443397 z"
         id="path187" /><path
         style="fill:#020d1c;stroke-width:0.264583"
         d="m 90.822014,131.37071 c -1.667544,-0.12384 -4.341021,-0.47563 -5.941062,-0.78175 -1.600039,-0.30612 -4.045686,-0.91684 -5.434767,-1.35716 -1.389083,-0.44032 -3.597169,-1.32168 -4.906856,-1.95858 -1.309687,-0.6369 -3.210703,-1.81982 -4.224478,-2.6287 -1.013774,-0.80888 -2.311235,-2.03263 -2.883243,-2.71943 -0.572008,-0.68681 -1.377202,-1.96363 -1.789314,-2.83739 -0.412115,-0.87376 -0.86174,-2.18344 -0.999164,-2.91041 -0.137425,-0.72698 -0.333875,-2.86959 -0.436555,-4.76136 -0.18669,-3.43958 -0.18669,-3.43958 1.582695,-3.35018 1.528165,0.0772 1.798482,0.16739 1.982833,0.66146 0.117395,0.31463 0.300008,1.70315 0.405807,3.0856 0.105796,1.38244 0.426723,3.22791 0.713166,4.10104 0.286443,0.87312 0.969973,2.24234 1.518954,3.04271 0.548981,0.80036 1.779593,2.11409 2.734691,2.91938 0.955098,0.8053 2.731172,1.96056 3.946826,2.56723 1.215655,0.60668 3.134215,1.40174 4.263469,1.76681 1.129253,0.36507 2.939545,0.84685 4.022876,1.07062 1.083329,0.22376 3.195487,0.54148 4.693687,0.70602 1.596964,0.1754 4.420777,0.23556 6.825041,0.14542 2.255572,-0.0846 5.14424,-0.34244 6.41926,-0.57306 1.27501,-0.23061 3.29908,-0.70391 4.49791,-1.05176 1.19884,-0.34786 3.00264,-1.0021 4.00845,-1.45388 1.00581,-0.45177 2.62246,-1.34906 3.59254,-1.99397 0.97008,-0.64491 2.29859,-1.74431 2.95225,-2.44312 0.65365,-0.69881 1.49413,-1.8046 1.86773,-2.45731 0.3736,-0.65272 0.86184,-1.78207 1.08498,-2.50968 0.22315,-0.7276 0.53452,-2.62297 0.69196,-4.21194 0.15743,-1.58897 0.31571,-2.91195 0.35172,-2.93997 0.036,-0.028 0.93468,-0.12051 1.99702,-0.20554 1.7309,-0.13855 1.91851,-0.108 1.8062,0.29413 -0.0689,0.24681 -0.20379,1.87749 -0.29968,3.62374 -0.0959,1.74625 -0.29955,3.71078 -0.45259,4.36563 -0.15304,0.65484 -0.70743,2.0203 -1.23197,3.03434 -0.52455,1.01405 -1.6119,2.51636 -2.41633,3.33847 -0.80443,0.8221 -2.3751,2.09042 -3.49037,2.81848 -1.11527,0.72805 -3.07783,1.76586 -4.36124,2.30623 -1.2834,0.54037 -3.64315,1.32416 -5.24388,1.74177 -1.60073,0.41759 -4.22011,0.93673 -5.82084,1.15363 -1.60072,0.2169 -4.279631,0.44685 -5.95312,0.511 -1.67349,0.0642 -4.407062,0.0153 -6.074606,-0.10852 z m -6.15964,-23.02592 c -0.5442,-0.12471 -1.803929,-0.63691 -2.7994,-1.13822 -0.995468,-0.50131 -2.633808,-1.47144 -3.640754,-2.15584 -1.006943,-0.6844 -2.91162,-2.10911 -4.23261,-3.16602 -1.320991,-1.05691 -3.14034,-2.605411 -4.042995,-3.441111 -0.902655,-0.8357 -1.707814,-1.452832 -1.789242,-1.371404 -0.08143,0.08143 -0.213995,1.344813 -0.294595,2.807525 -0.146545,2.65948 -0.146545,2.65948 -2.158955,2.49686 -1.106826,-0.0894 -2.071941,-0.21546 -2.144702,-0.28003 -0.07276,-0.0646 -0.121795,-5.13788 -0.108968,-11.274014 0.01783,-8.525608 0.156162,-13.028456 0.586615,-19.094103 0.384892,-5.423635 0.728612,-8.580667 1.085287,-9.96829 0.287096,-1.116936 0.889092,-2.912607 1.33777,-3.990379 0.448678,-1.077775 1.399709,-2.842824 2.113401,-3.922334 0.713693,-1.079511 1.642878,-2.370487 2.064856,-2.86884 0.767234,-0.906095 0.767234,-0.906095 3.78945,-0.318072 1.662218,0.323411 3.182988,0.642705 3.379491,0.709541 0.217003,0.07381 -0.250463,0.570534 -1.190625,1.265153 -0.851347,0.628999 -1.971389,1.615069 -2.488983,2.191268 -0.517594,0.576197 -1.305248,1.578759 -1.750346,2.227916 -0.445095,0.649158 -1.109376,1.7756 -1.476184,2.503205 -0.366805,0.727604 -0.919189,2.141026 -1.227518,3.140937 -0.30833,0.999911 -0.690113,2.916203 -0.848411,4.258429 -0.209341,1.775026 -0.207325,3.102387 0.0074,4.868338 0.162364,1.335363 0.586531,3.34813 0.942594,4.472821 0.573479,1.811449 0.939946,2.392243 3.210131,5.087599 1.40951,1.673489 3.621037,4.443827 4.914503,6.156308 1.293469,1.712479 3.245067,4.483658 4.336886,6.158172 1.091819,1.674516 2.578044,4.198622 3.302722,5.609124 0.724681,1.410501 1.552501,3.325071 1.8396,4.254591 0.287102,0.92952 0.522002,2.14056 0.522002,2.69119 0,0.57498 -0.197104,1.22701 -0.463021,1.53171 -0.254661,0.29181 -0.760677,0.58775 -1.124479,0.65764 -0.363802,0.0699 -1.106712,0.0251 -1.650912,-0.0997 z m 18.809326,-0.0163 c -0.40256,-0.14139 -0.84452,-0.59277 -1.03819,-1.06034 -0.27079,-0.65375 -0.27273,-1.13331 -0.01,-2.43423 0.18007,-0.89104 0.95354,-2.92976 1.71882,-4.53049 0.76529,-1.600729 2.10927,-4.04945 2.98663,-5.441601 0.87736,-1.39215 2.67147,-4.011525 3.98691,-5.820833 1.31544,-1.809308 3.77168,-4.943691 5.4583,-6.965301 2.14082,-2.566006 3.22805,-4.107169 3.6014,-5.105037 0.29414,-0.786165 0.71307,-2.451701 0.93097,-3.701196 0.21789,-1.249492 0.39201,-3.059879 0.38694,-4.023084 -0.005,-0.963205 -0.18133,-2.70378 -0.39167,-3.867946 -0.21034,-1.164167 -0.38478,-2.143882 -0.38765,-2.177145 -0.003,-0.03326 1.09613,0.330517 2.44219,0.808397 2.4474,0.868873 2.4474,0.868873 2.9374,7.468811 0.36007,4.849807 0.50039,9.803902 0.52917,18.682459 0.0215,6.645386 -0.0204,12.137016 -0.0931,12.203616 -0.0728,0.0666 -1.05502,0.17776 -2.18281,0.24701 -2.05052,0.12592 -2.05052,0.12592 -2.0769,-2.14945 -0.0145,-1.25145 -0.10483,-2.554648 -0.20072,-2.895989 -0.16497,-0.587238 -0.30395,-0.50573 -2.58365,1.515348 -1.32511,1.174781 -3.76486,3.157441 -5.42167,4.405901 -1.70812,1.28712 -4.15793,2.82819 -5.65821,3.55932 -1.4552,0.70917 -3.00302,1.34307 -3.43958,1.40867 -0.43656,0.0656 -1.10918,0.009 -1.49471,-0.12689 z"
         id="path185" /></g></g></svg>
